<svg viewBox="0 0 214 233" width="512" height="512" xmlns="http://www.w3.org/2000/svg" class="Header_logo"><path fill-rule="evenodd" fill="#fff" d="M95.1 95.5V115L63.5 92.7l13.3-9.8zm76-42.3v9.9h33.4v15.7h-33.4v3.1l42.7 29.6v18.8h.6v103.3h-155l-15.3-7.8v-39.5l-8.9 3.4v-18.2H30v22.1l9.8-3.6v22.2L1.4 226.3v-22.2l10.7-3.9v-28.7H3.7v-15.7h8.4V136H30v19.8h9.8v12.9l4.3-1.7v-24.9H62v18.1l4.3-1.7v-27.7h17.9v20.9l22.5-8.6v54l-17.9 7.5v-35.4l-4.6 1.8v35l-17.9 7.5v-35.7l-4.3 1.7v37.8h49.1v-87h40.4v-29.2l-41.7 29.4H84.2l-35.7-25.3 13.3-9.8L97 119.6l54.5-37.7v-3.1H118V63.1h33.5v-9.9h-43.6v3.9L89.8 69.8l21 13.7v18.6l-34-23.3-31.2 21.7v2.4l-40.9 8.8v-5.3l34.2-58.8h6.5l14.4-19.3h19.3l-6.8 9.2h79.2v-9.8h19.6v9.8h43.5v15.7zM53.4 62.8l-6.3 8.4h-4.5L33.4 89l8.2-2v-2.2l21.8-15.2zm10.9-9.6 11.8 7.6 11-7.6zm106.8 47.9v29.2h41.5zM186 208v4.4h2.7v-11.2H186v4.3h-4.2v-4.3h-2.7v11.2h2.7V208zm17.2 2.2c-1.2 0-2-.8-2.3-1.7l-2.6.7c.8 2.1 2.4 3.4 4.7 3.4 2.6 0 4.4-1.5 4.4-3.5 0-1.9-1.7-2.9-3.4-3.5-1.4-.5-2.5-.7-2.5-1.5 0-.4.5-.8 1.3-.8s1.6.5 1.9 1.4l2.6-.7c-.5-1.7-2.2-3-4.4-3-2.4 0-4.1 1.6-4.1 3.3 0 2 1.5 2.7 2.9 3.2 1.5.6 2.9.8 2.9 1.7 0 .6-.5 1-1.4 1m-7.7 18h5.8c3.8 0 6.8-2.6 6.8-6.6 0-3.9-3-6.6-6.8-6.6h-5.8zm3.2-24.5v-2.5h-9.4v2.5h3.3v8.7h2.7v-8.7zm-13.6 24.5h9.5v-3h-6.3V215h-3.2zm-11.6 0h9.8v-3h-6.6v-2.3h5.1v-2.8h-5.1v-2.2h6.5V215h-9.7zm-5.2 0h3.2V215h-3.2zm-10.6 0h3.2v-4.8h4.8v-2.9h-4.8v-2.6h6.2V215h-9.4zm-13.7 0h5.8c3.8 0 6.8-2.6 6.8-6.6 0-3.9-3-6.6-6.8-6.6H144zm-13.9 0h3.2v-7.9s1.8 2.5 3 4.2l2.7 3.7h3V215h-3.2v3c0 2.4.1 4.7 0 4.7 0 0-2-2.8-2.9-4l-2.8-3.7h-3zm-11.6 0h9.7v-3h-6.5v-2.3h5v-2.8h-5v-2.2h6.4V215h-9.6zm7.2-27h-2.6l-4.4 11.2h2.9l.6-1.8h4.4l.7 1.8h2.9zM139 205c0-2.3-1.7-3.8-4.5-3.8h-4.2v11.2h2.7v-3.7h1.4l2 3.7h3l-2.4-4.2c1.2-.6 2-1.7 2-3.2m11.5-3.8h-3.3l-2.7 2.7c-1.1 1.1-1.4 1.5-1.5 1.5 0 0 .1-.5.1-2.4v-1.8h-2.7v11.2h2.7v-3.7l.9-1 3.4 4.7h3.1l-4.7-6.4zm10.8 0h-2.7v2.6c0 2 .1 4 0 4 0 0-1.7-2.5-2.4-3.4l-2.4-3.2h-2.5v11.2h2.7v-2.5c0-2.4-.1-4.2 0-4.2 0 0 1.5 2.2 2.5 3.6l2.3 3.1h2.5zm4.4 0H163v11.2h2.7zm.9 5.6c0 3.3 2.6 5.8 5.8 5.8 1.1 0 2.4-.4 3-1.1v.9h2.3V206h-5.2v2.2h2.9c-.3.8-1.1 1.8-2.9 1.8s-3.1-1.3-3.1-3.2 1.1-3.2 3-3.2c.9 0 1.8.4 2.3 1.1l2.8-.8c-1-1.8-2.9-2.9-5.1-2.9-3.2 0-5.8 2.4-5.8 5.8m-31.8-.4H133v-2.7h1.8c1 0 1.4.7 1.4 1.3s-.4 1.4-1.4 1.4m-10.9-.3c.2-.6.5-1.6.5-1.6s.3 1 .6 1.6l.8 2.2h-2.7zm29.4 15.5c0 2.3-1.6 3.6-3.5 3.6h-2.6v-7.3h2.6c1.9 0 3.5 1.5 3.5 3.7m51.5 0c0 2.3-1.6 3.6-3.5 3.6h-2.6v-7.3h2.6c1.9 0 3.5 1.5 3.5 3.7M88.4 19.9c-.8-.9-2.4-2.3-3.8-3.2l2.1-1.8c1.4.8 3.2 2 4 3zm6.9 0c0 1.6-.3 2.5-1.2 3-1 .5-2.3.6-4 .6-.1-.9-.5-2.4-1-3.2a45 45 0 0 0 2.3 0c.3 0 .4-.1.4-.4v-5.3h-8.4c-.4 3.3-1.5 6.7-4.2 9-.5-.7-1.9-1.9-2.6-2.3 2.2-1.8 3.1-4.3 3.4-6.7h-2.9v-3.1h3.1V4.2H85c.3-.9.6-1.9.8-2.7l4.2.3c-.4.9-.9 1.7-1.4 2.4h6.7v7.3h2.9v3.1h-2.9zM83.6 7.2v4.3h4.2c-.7-.8-2-1.8-3-2.6l2-1.7zm8.2 0h-4.7c1.1.8 2.5 1.9 3.2 2.7l-1.9 1.6h3.4zm-26.3 3.5h10s-.1 1-.1 1.4c-.4 6.2-.9 8.8-1.9 9.9-.8.8-1.6 1.1-2.8 1.2-1 .1-2.5.1-4 0-.1-.9-.6-2.3-1.3-3.2a48 48 0 0 0 4 .1c.4 0 .8 0 1.1-.3.6-.4 1-2.3 1.3-5.9H65c-.8 3.8-2.5 7.3-6.6 9.7-.5-.9-1.5-2.1-2.4-2.7 5.3-3 5.7-7.8 5.9-12.5h-5.6V5.1h9.5c-.3-.8-.8-1.8-1.2-2.7l3.3-1.2c.1-1.2 1.3 2.4 1.7 3.3l-1.6.6h9.4v3.3H65.6a83 83 0 0 1-.1 2.3m-14.7 11h-9.6v1.5h-3.4V2.9h16.6v20.3h-3.6zm0-15.4h-9.6v4.2h9.6zm0 7.5h-9.6v4.5h9.6zm-16.7 9.1c-1 .5-2.4.6-4.3.6-.1-.9-.7-2.4-1.1-3.2h2.8c.5 0 .6-.1.6-.5v-3.5H28c-.5 2.7-1.6 5.5-3.9 7.3-.5-.6-1.9-1.7-2.6-2.1 3.4-2.8 3.7-7.2 3.7-10.6V2.5h10.2v17.3c0 1.7-.3 2.6-1.3 3.1m-2-17.3h-3.6v2.3h3.6zm0 5.3h-3.6c0 .8-.1 1.6-.1 2.4h3.7zm-13.8 8.2h-3.1V2.8h8.1v14.4h-5zm1.9-13.3h-1.9v2.6h1.9zm0 8.3v-2.7h-1.9v2.7zm22.9 13.6L16.8 77.3H4.7V61.4l18.8-33.7zm4.4 94.1-42.9 8.7v-15l42.9-8.7z"/></svg>