<?xml version="1.0" encoding="utf-8"?>
<svg version="1.1" id="1" xmlns="http://www.w3.org/2000/svg" xmlns:xlink="http://www.w3.org/1999/xlink" x="0px" y="0px" width="512px" height="512px" viewBox="0 -10 130 220" xml:space="preserve">
  <g>
    <g fill="white">
      <path id="svg_1" d=" M122.2,50.2l-14.5,19.1L79.5,97.2l-1.7,6.4l-7.3,12.1l-1.1,2.3l4.8-5.1l24.8,7.5l2.8-0.1l-3.7,3.2l-21,2.1l-2.4,1 l2.9-0.3l1.9,0.2l23.7,10.3l1.7,1.7l12.4,5.7l-1.7,0.2l-16.1-2.7l-11.1,2.2l-3,2.3l-7.2,1.9l-19.8,6.7l5.8,1.7l-1.9,1.8L49.8,165 l-1.1,2.5l-12.4,4l-0.6,0.6l-2.5,1.7l-11.9,17l-3.7,7l-1,0.4l-0.3-20.3l1-10.3l2.5-3l-0.2-1.2l2.4-17.5l-2.3-5.6L21,135l2-18.4 l-0.4-21.3l1.8-11.7L24.7,67l-0.6-5l-0.8-6.9L16.5,33l-5.6-11.2l-0.1-2.3l9.3,17l6.5,14.9l2.8,10.1l1.6,2l0.9,17.2l2.1,12.9 l3.6,7.1l-0.6,1.3l-0.8,7.3l1.5,4.9l2.2-3.1l8.2-5.4l8.8-9.1l1-2.1l2.2-10.4l-4.4-12.6l-12-16.7l14.4,15.3l2.7,2l5.4,13.3 l-2.8,14.7L68,85.5l16.7-9.3l17.4-14.7l21.6-23.3l4.1-8.4L139,5.6l0.1,2.2l-9.2,25.8L122.2,50.2L122.2,50.2z M42,145l-1.9,6.2 l1.1-0.5l5.6-7.8l0.3-8.3C47.1,134.6,42,145,42,145z M101.5,60.2l-1.6,1.5L86.7,73L84.4,75L97,51.2l1.4-1.8l4-16.8l-4.6-14.6 L89.7,0l9.7,16.3l4.4,10.9l3.9,7.4l-3.5,21.8L101.5,60.2L101.5,60.2z M27.5,51L26,47.6l0.5-3.9l0.2-17l-1.9-5.9l0-1.5l3,7.6 l4.1,34.6l-1.9-2.1L27.5,51L27.5,51z M22.8,88.1l-1.2,6.7l0.4,19.8l-0.7,4.6l-4.8-14.1l-2.1-2.6l2.9-15.8L14,76.8l-0.4-1.9L0,61.9 c0.5,0,19.4,14.6,19.4,14.6L22.8,88.1L22.8,88.1z M79.6,149c0.4,0,6-1.6,6-1.6s3-2.2,3.3-2.2c0.4,0,5.6-1.1,5.6-1.1l15,2.7 l11.2,2.2l-11.8,2.6l2.5,1.3l8.2,6.8l-17.4-5.3l-2.6-0.4l-1.7,2.8l-10.6,14.3l-5.9-11.9l-0.1-2l-9.9-2.3c0,0-9.5-0.5-10.1-0.5 "/>
    </g>
  </g>
</svg>