<?xml version="1.0" encoding="utf-8"?>
<!-- Generator: Adobe Illustrator 25.4.1, SVG Export Plug-In . SVG Version: 6.00 Build 0)  -->
<svg version="1.1" id="图层_1" xmlns="http://www.w3.org/2000/svg" xmlns:xlink="http://www.w3.org/1999/xlink" x="0px" y="0px"
	 viewBox="0 0 372.9 198.3" style="enable-background:new 0 0 372.9 198.3;" xml:space="preserve">
<g>
	<g fill="white">
		<path id="svg_1" d="M372.9,107.9l-4.2,12.4l-1.9-0.7l-3.7,23.5h-11.9l0.2-1.7c-2.3,0-4.5,0-6.7,0c-0.2,0-0.4,0.4-0.5,0.7
			c-0.1,0.4-0.2,0.8-0.7,0.8c-3.7,0-7.5,0-11.2,0c-0.1,0-0.2-0.1-0.3-0.1l3.4-21.8l-1.3,0.4l-0.8-1.3c-0.1,1-0.2,1.7-0.2,2.4
			c0,0.7-0.4,0.8-0.9,1c-4.4,1.1-8.9,2.3-13.3,3.4c-2.8,0.7-5.7,1.4-8.6,2.1l-1.6-9.2c2-0.1,3.3-1.2,4.5-2.6
			c1.7-1.9,3.4-3.7,5.1-5.6l-0.2-0.3l-5.8,1.6l-2.2-9.9c4.2-3.1,6.7-7.5,9.6-11.5c1.9-2.6,3.6-5.3,5.4-8.1l9,4.5l-11.3,14.4
			c1.4-0.2,2.6-0.3,3.5-1.5c1.4-1.9,2.9-3.7,4.4-5.6l5.2,3.8l0.1-0.1l-1.7-2.8c1.1-0.9,2.3-1.8,3.3-2.8c3.6-3.5,7.1-7.1,10.6-10.7
			c0.3-0.3,0.7-0.5,1.2-0.5c3.3,0.3,6.7,0.6,10,0.9c0.1,0,0.2,0,0.5,0.1l-1.3,2.2h9.7l-3.8,3.6h7.7c-0.1,0.7-0.1,1.2-0.2,1.8
			c-0.3,1.7-0.5,3.5-0.8,5.2c-0.1,0.4-0.3,0.8-0.5,1.1c-2.3,2.5-4.5,5-6.8,7.6c-0.2,0.2-0.4,0.3-0.8,0.5
			C366.2,106.6,369.5,107.2,372.9,107.9L372.9,107.9z M353,131.1l0.4-2.4h-7.1l-0.3,2.4H353L353,131.1z M342.2,102.4l-2.9,2.4
			l-1.6-2.6l-12.1,13.4l6.1-1.7l-0.9-3.7c4.7-0.9,9.2-2.5,13.3-4.7L342.2,102.4L342.2,102.4z M357.5,96.1h-4.9l-0.2,0.2l2.3,3l3-3
			C357.6,96.2,357.5,96.2,357.5,96.1L357.5,96.1z M352.4,113.5c-0.2-0.1-0.6-0.2-0.7-0.1c-2.4,1.4-4.7,2.8-7.1,4.2h15.2
			C357.2,116.6,354.7,115.2,352.4,113.5z M307.6,116.2c-0.8,5.5-1.7,10.9-2.5,16.4c-0.2,1.1-0.2,2.1-0.4,3.2c-0.7,3-2.6,5-5.3,6.3
			c-2.6,1.2-5.4,1.7-8.3,1.9c-1.4,0.1-2.9,0.1-4.3,0c-0.2,0-0.7-0.3-0.7-0.5c-0.5-3.2-0.9-6.4-1.4-9.5c2.1-0.1,4-0.1,5.9-0.4
			c2.6-0.4,4-1.8,4.4-4c0-0.1,0-0.2,0-0.6l-2.3,1.9l-2.2,1.8l-3.5-7.3c-2,3.8-4.1,7.2-6.7,10.3l-4.7-4.2l-2.2,1.7l-3.6-7.4
			l-6.7,10.1l-5.4-4.8l-1.9,12h-10.4l9.2-59.5h58.2l-1,6.7L307.6,116.2L307.6,116.2z M261.7,104.6l-3.6,23.1
			c0.2-0.1,0.3-0.2,0.3-0.2c2.5-4.2,4.9-8.4,7.4-12.6c0.1-0.2,0.1-0.7,0-0.9c-1.2-2.9-2.5-5.8-3.7-8.7
			C262,105,261.9,104.9,261.7,104.6L261.7,104.6z M263.5,92.7l-0.8,5l4.7-3.5l4,8.7l3.8-10.2H263.5z M275.4,113.8
			c1.1,2.7,2.1,5.3,3.2,8l0.3,0c1.4-2.8,2.7-5.6,4.1-8.3c0.1-0.3,0-0.7-0.1-1c-0.9-2.9-1.9-5.7-2.9-8.6c-0.1-0.2-0.2-0.5-0.3-0.7
			c-1.4,3.3-2.9,6.6-4.3,9.8C275.4,113.3,275.3,113.6,275.4,113.8L275.4,113.8z M275.7,92.7l0,0.2c1.8,0.8,3.6,1.7,5.3,2.5
			c0.5,0.2,0.8,0.2,1.3-0.1c1.1-0.7,2.2-1.4,3.3-2.1l3.5,7.2l3-7.6L275.7,92.7L275.7,92.7z M295.8,92.7l0,0.2l4.3,1.8
			c-0.1,0.2-0.1,0.4-0.1,0.5c-2.2,5.4-4.5,10.8-6.7,16.2c-0.1,0.3-0.3,0.8-0.2,1.1c1,2.5,2.2,5,3.2,7.5h0.2l4.3-27.4L295.8,92.7
			L295.8,92.7z M248.3,106.5l-3.9,24.9c-0.2,1.5-0.4,3-0.7,4.5c-0.8,4.7-2.6,6.3-7.1,7.1c-3.5,0.6-7.1,0.7-10.8,1l-2.3-10.4h0.8
			c1.9,0,3.8,0.1,5.7,0c2.1-0.1,2.3-0.4,2.5-2.5h-9.4l-1.8,11.2H209l1.7-11.2c-2.2,0-4.4,0.1-6.6,0c-1.9-0.2-2.8,0.5-3.8,2.2
			c-2.2,3.7-4.8,7.3-7.3,10.9c-0.1,0.2-0.2,0.3-0.4,0.5l-8.8-8.2c3.7-3.7,5.9-8.1,7.5-12.9c1.6-4.7,2.6-9.5,3.3-14.6l-3.8,2.2
			l-2.6-12h-6.3c-1.2,0-1.3,0-1.2,1.5h6.4c-0.2,1.1-0.3,2.1-0.5,3.3h-3.7c-0.7,0-1.3,0-2,0c-0.9-0.1-1.2,0.2-1.1,1.2h6.2l-0.4,3
			h-6.4l-0.2,1.3h8.1l-0.7,4.2h-17.3l0.1,1.3h14.2l-0.8,5.5c0,0.2-0.1,0.4-0.1,0.6c0.1,2.5-1.3,4-3.5,4.7c-1.8,0.6-3.7,1-5.6,1.2
			c-2.3,0.2-4.7,0-7.1,0l-1-5.2c1.3,0,2.5,0,3.8,0c0.6,0,1.4-0.1,1.1-1.2h-7.9l2.8,2.4l-4.4,4.2h23.6c-0.3,2.2-0.6,4.2-1,6.3
			c-0.2,1.4-0.4,2.7-0.7,4.1c-0.7,3.3-2.7,5.4-6,5.8c-3.2,0.5-6.4,0.6-9.6,0.8c-0.2,0-0.6-0.4-0.7-0.6c-0.3-0.9-0.4-1.8-0.6-2.8
			h-29.7l1.1-7h31.7l-0.3,2.7c0.7,0,1.3,0.1,2,0c0.2,0,0.6-0.4,0.6-0.7c0.2-1.1,0.4-2.2,0.6-3.5h-30.7l2.7-17.3h13.4l-0.7-1.5
			l-0.3,0.1l0.9-6.1l-2,1.4l-1.3-1.4c-0.3,1.6-0.5,3-0.7,4.4c-0.3,2.1-0.3,2.1-2.4,2.1l-7.7,0c-0.1,0-0.1,0-0.3-0.1l0.8-5.5
			c-1,0.4-1.4,0.9-1.6,1.9c-1.3,9-3,17.9-6.6,26.3c-1.1,2.6-2.5,5.1-4.3,7.4l-6.9-5.4l5.2-4.9h-5.4c0-0.2,0-0.3,0-0.4
			c2.9-5.2,4.4-10.8,5.4-16.5c1.6-9.2,2.9-18.4,4.4-27.6c0.1-0.9,0.3-1.7,0.3-2.6c0-0.9,0.3-1.2,1.2-1.1c6.5,0,13,0,19.5,0h1.2
			L156,83l12.4-0.5c0.1,0.6,0.4,1.2,0.4,1.8c0.1,0.9,0.5,1,1.3,1c6.7,0,13.3,0,20,0h1.3l-1.2,7.8h-8.4l0.3,1.5h7.3l-0.6,4.2
			c0.3-0.2,0.5-0.3,0.7-0.4c6.2-4.2,11.7-9,16-15.2c0.2-0.3,0.6-0.5,0.9-0.5c4.4,0,8.8,0,13.4,0l-1.3,2.2h24.3
			c-0.4,2.3-0.8,4.5-1,6.7c-0.2,1.6-0.9,2.8-2.1,3.7c-0.7,0.5-1.3,1.1-2.1,1.9h12.1L248.3,106.5L248.3,106.5z M144.4,93.3l-0.5,3.5
			l2.1-1.8l1.9-1.7H144.4z M156.5,120.3c-0.2,0.1-0.6,0.3-0.6,0.5c-0.3,2-0.6,4.1-1,6.2h6.1l-5.3-5l2.1-1.6
			C157.3,120.2,156.9,120.2,156.5,120.3z M158,94.3c-0.5,0.7-1.1,1.3-1.7,1.8c-0.8,0.7-1,1.6-1,2.8l6.4-5.7
			C160.1,93.1,158.9,93,158,94.3L158,94.3z M166.9,109.2h2.4l0.2-1.4C166.5,107.6,167,107.6,166.9,109.2z M167.5,105.2h2.5l0.2-1.7
			h-2.5L167.5,105.2L167.5,105.2z M169.6,99c-1.3,0-1.3,0-1.2,1.5h2.4c0.1-0.3,0.1-0.5,0.2-0.7c0-0.2,0-0.4,0.1-0.7H169.6L169.6,99z
			 M169.6,94.7h3c0-0.2,0-0.3,0-0.5v-0.9C170.8,93.1,170.4,93.3,169.6,94.7L169.6,94.7z M204.4,119.3l-0.3,1.9h6.5
			c1.8,0,1.8,0,1.9-1.8c0,0,0-0.1-0.1-0.1H204.4z M206.2,109.4h7.9l0.3-2.2h-7.9L206.2,109.4L206.2,109.4z M223.1,95.1
			c-3.7,0-7.4,0.1-11.1,0c-1.6-0.1-2.5,0.7-3.6,1.9h13.2c1.3,0,2-0.5,2.5-1.8H223.1z M224.7,121.3c0,0,0,0.1,0.1,0.2
			c2.9,0,5.8,0,8.7,0c0.1,0,0.4-0.2,0.4-0.4c0.1-0.6,0.2-1.2,0.3-1.8h-7.2C224.9,119.2,224.9,119.2,224.7,121.3z M235,107.2
			c-2.2,0-4.3,0-6.5,0c-2,0-1.5-0.3-1.9,1.7c0,0.1,0,0.2,0,0.4c2.9,0,5.8,0,8.6,0c0.2,0,0.4-0.3,0.5-0.4c0.1-0.5,0.2-1,0.2-1.6H235
			L235,107.2z M122.2,50.2l-14.5,19.1L79.5,97.2l-1.7,6.4l-7.3,12.1l-1.1,2.3l4.8-5.1l24.8,7.5l2.8-0.1l-3.7,3.2l-21,2.1l-2.4,1
			l2.9-0.3l1.9,0.2l23.7,10.3l1.7,1.7l12.4,5.7l-1.7,0.2l-16.1-2.7l-11.1,2.2l-3,2.3l-7.2,1.9l-19.8,6.7l5.8,1.7l-1.9,1.8L49.8,165
			l-1.1,2.5l-12.4,4l-0.6,0.6l-2.5,1.7l-11.9,17l-3.7,7l-1,0.4l-0.3-20.3l1-10.3l2.5-3l-0.2-1.2l2.4-17.5l-2.3-5.6L21,135l2-18.4
			l-0.4-21.3l1.8-11.7L24.7,67l-0.6-5l-0.8-6.9L16.5,33l-5.6-11.2l-0.1-2.3l9.3,17l6.5,14.9l2.8,10.1l1.6,2l0.9,17.2l2.1,12.9
			l3.6,7.1l-0.6,1.3l-0.8,7.3l1.5,4.9l2.2-3.1l8.2-5.4l8.8-9.1l1-2.1l2.2-10.4l-4.4-12.6l-12-16.7l14.4,15.3l2.7,2l5.4,13.3
			l-2.8,14.7L68,85.5l16.7-9.3l17.4-14.7l21.6-23.3l4.1-8.4L139,5.6l0.1,2.2l-9.2,25.8L122.2,50.2L122.2,50.2z M42,145l-1.9,6.2
			l1.1-0.5l5.6-7.8l0.3-8.3C47.1,134.6,42,145,42,145z M101.5,60.2l-1.6,1.5L86.7,73L84.4,75L97,51.2l1.4-1.8l4-16.8l-4.6-14.6
			L89.7,0l9.7,16.3l4.4,10.9l3.9,7.4l-3.5,21.8L101.5,60.2L101.5,60.2z M27.5,51L26,47.6l0.5-3.9l0.2-17l-1.9-5.9l0-1.5l3,7.6
			l4.1,34.6l-1.9-2.1L27.5,51L27.5,51z M22.8,88.1l-1.2,6.7l0.4,19.8l-0.7,4.6l-4.8-14.1l-2.1-2.6l2.9-15.8L14,76.8l-0.4-1.9L0,61.9
			c0.5,0,19.4,14.6,19.4,14.6L22.8,88.1L22.8,88.1z M79.6,149c0.4,0,6-1.6,6-1.6s3-2.2,3.3-2.2c0.4,0,5.6-1.1,5.6-1.1l15,2.7
			l11.2,2.2l-11.8,2.6l2.5,1.3l8.2,6.8l-17.4-5.3l-2.6-0.4l-1.7,2.8l-10.6,14.3l-5.9-11.9l-0.1-2l-9.9-2.3c0,0-9.5-0.5-10.1-0.5
			C60.8,154.5,79.2,149,79.6,149L79.6,149z M186.4,150.9l-1.5,8.8h2.8l1.5-8.8h5.4l-3.9,22.1h-5.4l1.7-9.5h-2.8l-1.7,9.5h-5.4
			l3.9-22.1L186.4,150.9L186.4,150.9z M200,150.9l0.7,5.9l2.5-5.9h4.9l-6.2,12.7l-1.7,9.4H195l1.7-9.4l-1.8-12.7L200,150.9
			L200,150.9z M216.3,150.9c2,0,3.4,0.6,4.2,1.7c0.8,1.1,1,2.7,0.6,4.8c-0.2,1-0.5,1.9-0.9,2.8c-0.3,0.7-0.8,1.3-1.3,1.9
			c-0.5,0.5-1,0.8-1.7,1.1c-0.7,0.3-1.3,0.5-1.9,0.5c-0.7,0.1-1.4,0.1-2.1,0.1h-1.8l-1.6,9.1h-5.4l3.9-22.1L216.3,150.9L216.3,150.9
			z M213.8,160.2c0.7,0,1.2-0.2,1.5-0.7c0.3-0.4,0.5-1.2,0.7-2.2c0.1-0.3,0.1-0.5,0.1-0.7c0-0.2,0-0.5,0-0.7c0-0.2-0.1-0.4-0.2-0.6
			c-0.1-0.2-0.3-0.3-0.5-0.4c-0.2-0.1-0.5-0.2-0.8-0.2h-1.7l-1,5.4L213.8,160.2L213.8,160.2z M209.5,174.7l1.3,2.6l0.4-2.6h1
			l-0.8,4.7h-0.8l-1.3-2.6l-0.4,2.6h-1l0.8-4.7L209.5,174.7L209.5,174.7z M213.9,176c0.9,0,1.5,0.8,1.3,1.8c0,0.1-0.1,0.3-0.1,0.4
			h-2.3c0.1,0.4,0.3,0.5,0.7,0.5c0.2,0,0.5-0.1,0.7-0.3l0.7,0.5c-0.4,0.4-0.9,0.7-1.5,0.7c-1.1,0-1.6-0.8-1.5-1.8
			C212.1,176.8,212.9,176,213.9,176z M214.4,177.4c0-0.4-0.3-0.5-0.6-0.5c-0.4,0-0.7,0.2-0.8,0.5H214.4z M215.4,176.1h0.5l0.1-0.6
			l1-0.3l-0.2,0.9h1.6l0.2,1.8l0.8-1.8h0.9l0.2,1.8l0.8-1.8h1l-1.6,3.4h-0.9l-0.2-1.8l-0.8,1.8h-0.9l-0.4-3.1l-0.1,0.7h-0.7
			l-0.2,1.2c0,0.3,0.2,0.3,0.6,0.3l-0.2,0.9c-1.3,0.1-1.6-0.3-1.4-1.2l0.2-1.2h-0.5L215.4,176.1L215.4,176.1z M223.9,176
			c0.9,0,1.6,0.8,1.4,1.8c-0.2,1-1.1,1.8-2,1.8s-1.6-0.8-1.4-1.8C222.1,176.8,222.9,176,223.9,176z M223.5,178.6
			c0.4,0,0.8-0.3,0.9-0.8c0.1-0.5-0.2-0.8-0.6-0.8s-0.8,0.3-0.9,0.8C222.8,178.3,223,178.6,223.5,178.6z M226.7,176.1l-0.1,0.6
			c0.2-0.4,0.6-0.7,1.1-0.7l-0.2,1.1c-0.4-0.1-1,0.1-1.1,0.8l-0.3,1.5h-1l0.6-3.4L226.7,176.1L226.7,176.1z M229,174.7l-0.3,2.1
			l1.7-2.1h1.2l-1.9,2.3l1.2,2.4h-1.2l-1.1-2.2l-0.4,2.2h-1l0.8-4.7L229,174.7L229,174.7z M232.5,174.7h3.3l-0.2,1h-1.1l-0.6,3.7h-1
			l0.6-3.7h-1.1L232.5,174.7z M237.2,176c0.9,0,1.5,0.8,1.3,1.8c0,0.1-0.1,0.3-0.1,0.4h-2.3c0.1,0.4,0.3,0.5,0.7,0.5
			c0.2,0,0.5-0.1,0.7-0.3l0.7,0.5c-0.4,0.4-0.9,0.7-1.5,0.7c-1.1,0-1.6-0.8-1.5-1.8C235.3,176.8,236.2,176,237.2,176z M237.6,177.4
			c0-0.4-0.3-0.5-0.6-0.5c-0.4,0-0.7,0.2-0.8,0.5H237.6z M240.5,176c0.6,0,1.1,0.3,1.3,0.9l-0.9,0.5c-0.1-0.2-0.3-0.4-0.6-0.4
			c-0.4,0-0.8,0.3-0.9,0.8c-0.1,0.5,0.2,0.8,0.6,0.8c0.3,0,0.5-0.1,0.7-0.4l0.8,0.5c-0.4,0.5-1,0.9-1.6,0.9c-1,0-1.6-0.8-1.4-1.8
			C238.7,176.8,239.5,176,240.5,176L240.5,176z M243.1,174.7l-0.3,1.7c0.3-0.3,0.6-0.4,1-0.4c0.7,0,1.1,0.5,1,1.4l-0.3,2.1h-1
			l0.3-1.9c0.1-0.4-0.1-0.6-0.5-0.6c-0.4,0-0.6,0.2-0.7,0.7l-0.3,1.8h-1l0.8-4.7L243.1,174.7L243.1,174.7z M246.3,176.1l-0.1,0.3
			c0.3-0.3,0.6-0.4,1-0.4c0.6,0,1.1,0.5,1,1.4l-0.3,2.1h-1l0.3-1.9c0.1-0.4-0.1-0.6-0.5-0.6c-0.4,0-0.6,0.2-0.7,0.7l-0.3,1.8h-1
			l0.6-3.4H246.3L246.3,176.1z M250.2,176c0.9,0,1.6,0.8,1.4,1.8c-0.2,1-1.1,1.8-2,1.8s-1.6-0.8-1.4-1.8
			C248.4,176.8,249.3,176,250.2,176z M249.8,178.6c0.4,0,0.8-0.3,0.9-0.8c0.1-0.5-0.2-0.8-0.6-0.8s-0.8,0.3-0.9,0.8
			C249.1,178.3,249.4,178.6,249.8,178.6z M253.3,174.5l-0.8,4.9h-1l0.8-4.9H253.3z M254.9,176c0.9,0,1.6,0.8,1.4,1.8
			c-0.2,1-1.1,1.8-2,1.8c-0.9,0-1.6-0.8-1.4-1.8C253.1,176.8,253.9,176,254.9,176z M254.4,178.6c0.4,0,0.8-0.3,0.9-0.8
			c0.1-0.5-0.2-0.8-0.6-0.8s-0.8,0.3-0.9,0.8C253.8,178.3,254,178.6,254.4,178.6L254.4,178.6z M257.7,180c0.4,0,0.8-0.2,0.8-0.7
			l0.1-0.3c-0.3,0.3-0.6,0.4-1,0.4c-0.9,0-1.4-0.8-1.3-1.7c0.2-0.9,1-1.7,1.9-1.7c0.4,0,0.7,0.2,0.9,0.4l0.1-0.3h2l0.4,2.1l0.9-2.1
			h1l-1.6,3.3c-0.5,1.1-1.2,1.5-2.1,1.5l0.2-0.9c0.4,0,0.7-0.1,0.9-0.6l-0.7-3.1l-0.5,3.1c-0.2,1.1-1.1,1.6-2,1.6
			c-0.7,0-1.2-0.3-1.4-0.8l0.9-0.5C257.1,179.8,257.3,180,257.7,180L257.7,180z M258.2,176.9c-0.5,0-0.8,0.3-0.9,0.8
			c-0.1,0.5,0.2,0.8,0.6,0.8c0.5,0,0.8-0.3,0.9-0.8C258.9,177.2,258.6,176.9,258.2,176.9L258.2,176.9z M267,174.6
			c0.8,0,1.5,0.4,1.7,1.1l-1,0.5c-0.1-0.4-0.5-0.6-0.9-0.6c-0.8,0-1.4,0.6-1.5,1.4c-0.1,0.8,0.3,1.4,1.1,1.4c0.4,0,0.9-0.2,1.1-0.6
			l0.8,0.5c-0.5,0.7-1.3,1.1-2.1,1.1c-1.4,0-2.2-1.1-1.9-2.5C264.4,175.7,265.6,174.6,267,174.6L267,174.6z M270.3,176
			c0.9,0,1.6,0.8,1.4,1.8c-0.2,1-1.1,1.8-2,1.8c-0.9,0-1.6-0.8-1.4-1.8C268.5,176.8,269.4,176,270.3,176L270.3,176z M269.9,178.6
			c0.4,0,0.8-0.3,0.9-0.8c0.1-0.5-0.2-0.8-0.6-0.8s-0.8,0.3-0.9,0.8C269.2,178.3,269.5,178.6,269.9,178.6z M272.8,178.9
			c-0.1,0.4-0.4,0.6-0.7,0.6s-0.6-0.3-0.5-0.6c0.1-0.3,0.4-0.6,0.7-0.6S272.9,178.6,272.8,178.9z M274.4,178.4l-0.8,2h-0.8l0.6-2
			H274.4z M248.8,155.1c0.4-0.9,0.9-1.7,1.6-2.4c0.6-0.7,1.5-1.2,2.4-1.6c1-0.4,2.1-0.5,3.3-0.5c1,0,1.9,0.1,2.6,0.3
			c0.7,0.2,1.3,0.5,1.8,0.9c0.4,0.4,0.8,0.9,1,1.4c0.2,0.6,0.3,1.1,0.4,1.8c0,0.6,0,1.3-0.2,2.1l-0.3,1.6H256l0.4-2.1
			c0-0.2,0.1-0.5,0.1-0.6c0-0.2,0-0.3,0-0.6c0-0.2,0-0.4-0.1-0.5c-0.1-0.1-0.2-0.3-0.3-0.3c-0.2-0.1-0.4-0.2-0.6-0.1
			c-0.5,0-1,0.3-1.3,0.8c-0.1,0.2-0.2,0.5-0.3,0.7c-0.1,0.2-0.1,0.5-0.2,0.8l-1.9,10.8c0,0.3-0.1,0.5-0.1,0.8c0,0.2,0,0.5,0.1,0.7
			c0.1,0.2,0.2,0.4,0.4,0.6c0.2,0.1,0.5,0.2,0.7,0.2c0.4,0,0.7-0.1,1-0.4c0.3-0.2,0.5-0.5,0.7-0.8c0.1-0.3,0.2-0.7,0.3-1l0.5-2.9
			h-1.8l0.5-3.1h6.7l-2.1,11.6h-3.6l0-1.6c-0.9,1.3-2.2,2-3.8,2c-1.1,0-2.1-0.2-2.9-0.6c-0.7-0.3-1.3-0.9-1.6-1.6
			c-0.4-0.8-0.6-1.6-0.6-2.4c0-1,0-2.1,0.2-3.1l1.3-7.4C248.1,157.1,248.4,156,248.8,155.1L248.8,155.1z M240.6,150.9
			c0.9,0,1.8,0,2.5,0.1c0.7,0.1,1.4,0.3,2,0.5c0.6,0.2,1.1,0.6,1.5,1c0.4,0.5,0.6,1.1,0.7,1.7c0.1,0.7,0.1,1.5-0.1,2.4
			c-0.3,1.5-0.7,2.7-1.2,3.5s-1.4,1.6-2.5,2.1l1.1,10.6h-5.7l-0.6-9.8h-1.1l-1.7,9.8h-5.4l3.9-22.1L240.6,150.9L240.6,150.9z
			 M239.2,160.3c0.9,0,1.6-0.3,2-0.8c0.4-0.5,0.7-1.2,0.9-2.2c0.2-0.9,0.1-1.6-0.1-2.1c-0.2-0.5-0.7-0.7-1.5-0.7h-1.7l-1,5.8H239.2z
			 M229.6,173.1h-10.4l3.9-22.1h10.4l-0.6,3.6h-5l-0.9,4.9h3.7l-0.7,3.8h-3.7l-1.1,6.2h5L229.6,173.1L229.6,173.1z M269,173.1
			l-0.6-9.8h-1.1l-1.7,9.8h-5.4l3.9-22.1h6.6c0.9,0,1.8,0,2.5,0.1c0.7,0.1,1.4,0.3,2,0.5c0.6,0.2,1.1,0.6,1.5,1
			c0.4,0.5,0.6,1.1,0.7,1.7c0.1,0.7,0.1,1.5-0.1,2.4c-0.3,1.5-0.7,2.7-1.2,3.5c-0.5,0.9-1.4,1.6-2.5,2.1l1.1,10.6H269L269,173.1z
			 M272.1,155.2c-0.2-0.5-0.7-0.7-1.5-0.7h-1.7l-1,5.8h1.4c0.9,0,1.6-0.3,2-0.8c0.4-0.5,0.7-1.2,0.9-2.2
			C272.3,156.4,272.3,155.7,272.1,155.2z M277.5,174.7l-0.6,3.7h1.6l-0.2,1h-2.6l0.8-4.7H277.5L277.5,174.7z M278.7,176.1h0.5
			l0.1-0.6l1-0.3l-0.2,0.9h0.7l-0.2,1H280l-0.2,1.2c0,0.3,0.2,0.3,0.6,0.3l-0.2,0.9c-1.3,0.1-1.6-0.3-1.4-1.2l0.2-1.2h-0.5
			L278.7,176.1z M282.4,176c0.4,0,0.7,0.2,0.9,0.4l0.3-1.7h1l-0.8,4.7h-1l0.1-0.3c-0.3,0.3-0.6,0.4-1,0.4c-0.8,0-1.4-0.8-1.2-1.8
			C280.8,176.8,281.6,176,282.4,176L282.4,176z M282.2,178.6c0.4,0,0.8-0.3,0.9-0.8c0.1-0.5-0.2-0.8-0.6-0.8c-0.4,0-0.8,0.3-0.9,0.8
			C281.5,178.3,281.7,178.6,282.2,178.6z M285.3,178.9c-0.1,0.4-0.4,0.6-0.7,0.6s-0.6-0.3-0.5-0.6c0.1-0.3,0.4-0.6,0.7-0.6
			S285.4,178.6,285.3,178.9z M283.2,150.9l0.7,5.9l2.5-5.9h4.9l-6.2,12.7l-1.7,9.4h-5.2l1.7-9.4l-1.8-12.7L283.2,150.9L283.2,150.9z
			 M299.5,150.9c2,0,3.4,0.6,4.2,1.7c0.8,1.1,1,2.7,0.6,4.8c-0.2,1-0.4,1.9-0.9,2.8c-0.3,0.7-0.8,1.3-1.3,1.9
			c-0.5,0.5-1,0.8-1.7,1.1c-0.7,0.3-1.3,0.5-1.9,0.5c-0.7,0.1-1.4,0.1-2.1,0.1h-1.8l-1.6,9.1h-5.4l3.9-22.1L299.5,150.9L299.5,150.9
			z M297,160.2c0.7,0,1.2-0.2,1.5-0.7s0.5-1.2,0.7-2.2c0.1-0.3,0.1-0.5,0.1-0.7c0-0.2,0-0.5,0-0.7c0-0.2-0.1-0.4-0.2-0.6
			c-0.1-0.2-0.3-0.3-0.5-0.4c-0.2-0.1-0.5-0.2-0.8-0.2h-1.7l-1,5.4L297,160.2L297,160.2z M306.9,132.3l24.9-6.3v9.7l-23.8,5.8
			L306.9,132.3z M311.8,150.9l-1.6,8.8h2.8l1.5-8.8h5.4l-3.9,22.1h-5.4l1.7-9.5h-2.8l-1.7,9.5h-5.4l3.9-22.1L311.8,150.9
			L311.8,150.9z"/>
	</g>
</g>
</svg>
